<?xml version="1.0" standalone="no"?>
<!DOCTYPE svg PUBLIC "-//W3C//DTD SVG 20010904//EN"
 "http://www.w3.org/TR/2001/REC-SVG-20010904/DTD/svg10.dtd">
<svg version="1.0" xmlns="http://www.w3.org/2000/svg"
 width="520.000000pt" height="520.000000pt" viewBox="0 0 520.000000 520.000000"
 preserveAspectRatio="xMidYMid meet">
<metadata>
Created by potrace 1.11, written by Peter Selinger 2001-2013
</metadata>
<g transform="translate(0.000000,520.000000) scale(0.100000,-0.100000)"
fill="#000000" stroke="none">
<path d="M400 3173 c-6 -21 -15 -72 -21 -113 -6 -41 -14 -93 -18 -115 l-7 -40
-28 48 c-24 40 -33 48 -55 45 -23 -3 -26 -8 -29 -46 -4 -56 23 -157 55 -207
14 -22 43 -56 64 -76 47 -44 56 -84 12 -49 -79 60 -103 63 -103 12 0 -74 96
-202 184 -245 30 -15 61 -37 67 -48 6 -12 7 -20 2 -18 -106 46 -133 47 -133 5
0 -35 101 -135 165 -165 28 -13 70 -26 94 -29 34 -4 59 -17 107 -55 l63 -50
-6 -43 c-5 -40 -4 -44 21 -54 17 -6 143 -10 317 -10 275 0 290 1 309 20 16 16
18 25 10 45 -6 15 -10 30 -10 34 0 4 28 30 63 57 52 42 73 52 116 57 69 8 142
50 202 115 78 86 63 133 -31 93 -60 -26 -63 -26 -50 -1 6 11 35 32 66 47 67
33 127 96 161 169 41 91 15 146 -45 92 -52 -47 -62 -52 -62 -34 0 8 24 40 54
69 62 62 94 135 103 235 5 55 3 67 -11 78 -26 18 -41 8 -73 -44 l-27 -47 -7
40 c-4 22 -12 74 -18 115 -16 113 -29 150 -51 150 -29 0 -32 -14 -15 -79 22
-84 20 -86 -30 -46 -83 69 -107 26 -54 -100 17 -42 49 -99 70 -128 25 -33 39
-62 39 -82 0 -29 -1 -28 -36 23 -27 41 -40 52 -57 50 -21 -3 -22 -8 -21 -98 0
-74 6 -111 24 -162 18 -53 21 -72 13 -90 -10 -21 -12 -20 -23 24 -37 145 -109
50 -114 -152 -2 -52 -6 -103 -11 -112 -14 -34 -24 -18 -18 30 4 37 2 52 -12
65 -9 9 -20 17 -25 17 -25 0 -110 -151 -131 -233 -10 -41 -13 -44 -26 -32 -9
9 -34 15 -67 15 -50 0 -53 2 -69 35 -19 39 -42 54 -60 36 -8 -8 -8 -19 0 -41
l11 -30 -100 0 c-92 0 -99 1 -92 18 4 9 22 59 38 109 29 85 33 93 57 93 21 0
28 -6 35 -32 7 -24 17 -34 33 -36 23 -4 24 -2 19 45 l-6 48 52 40 c29 23 71
45 98 51 97 22 189 107 223 205 9 24 15 78 15 130 0 106 -4 109 -109 109 -66
0 -91 10 -56 24 11 4 15 21 15 60 0 44 -4 57 -19 66 -12 6 -126 10 -301 10
-175 0 -289 -4 -301 -10 -15 -9 -19 -22 -19 -66 0 -39 4 -56 15 -60 36 -14 9
-24 -63 -24 -47 0 -83 -5 -90 -12 -18 -18 -15 -175 4 -232 19 -55 101 -149
153 -176 21 -10 55 -22 76 -26 24 -4 60 -24 90 -48 28 -22 51 -42 53 -42 8 -4
-30 -131 -55 -186 l-26 -58 -53 0 c-41 0 -56 -4 -67 -20 -13 -18 -14 -16 -26
33 -15 65 -74 187 -105 216 -42 40 -76 0 -62 -74 7 -37 -6 -48 -19 -17 -5 9
-9 60 -10 112 -6 201 -78 297 -115 152 -11 -44 -13 -45 -23 -24 -8 18 -5 37
14 90 18 53 24 87 24 162 0 90 -1 95 -22 98 -17 2 -30 -9 -57 -50 l-36 -53 0
36 c0 25 7 42 25 59 38 36 108 186 109 234 1 55 -21 58 -79 11 -50 -41 -52
-39 -30 46 17 65 14 79 -15 79 -13 0 -22 -11 -30 -37z m51 -225 c-29 -50 -31
-51 -31 -24 0 19 10 40 27 58 38 40 40 27 4 -34z m1407 -23 c-3 -28 -4 -27
-30 22 -36 66 -35 75 3 37 23 -23 30 -38 27 -59z m-448 61 c0 -16 -100 -26
-262 -26 -108 0 -109 0 -106 -22 3 -23 6 -23 166 -26 l162 -2 0 -113 c0 -162
-27 -243 -109 -330 -47 -50 -80 -67 -131 -67 -37 0 -48 6 -99 58 -32 32 -70
83 -86 117 -27 56 -30 70 -33 198 l-4 137 25 0 c25 0 42 23 31 41 -3 5 -25 9
-50 9 -37 0 -44 3 -44 20 0 20 7 20 270 20 220 0 270 -2 270 -14z m-1044 -211
c4 -23 3 -36 -2 -32 -13 8 -50 85 -59 122 -6 29 -5 28 24 -12 16 -22 33 -58
37 -78z m1608 88 c-8 -34 -52 -123 -60 -123 -14 0 9 74 34 110 15 22 28 39 30
40 1 0 -1 -12 -4 -27z m-1124 -90 c0 -75 21 -177 46 -224 8 -17 14 -33 12 -35
-9 -9 -86 40 -120 77 -45 49 -68 114 -68 191 l0 58 65 0 65 0 0 -67z m710 9
c0 -77 -23 -142 -68 -191 -34 -37 -111 -86 -120 -77 -2 2 4 18 12 35 25 47 46
149 46 224 l0 67 65 0 65 0 0 -58z m-1082 -99 c-11 -71 -20 -85 -29 -49 -6 21
-2 40 12 67 11 22 21 39 23 39 1 0 -1 -25 -6 -57z m1341 18 c14 -27 18 -46 12
-67 -4 -15 -10 -23 -14 -18 -7 12 -26 124 -21 124 2 0 12 -17 23 -39z m-1411
-179 c45 -42 61 -87 21 -59 -26 18 -84 97 -72 97 6 0 28 -17 51 -38z m1497 1
c-46 -63 -98 -97 -75 -50 13 24 80 87 94 87 4 0 -4 -17 -19 -37z m-1326 -128
c1 -48 0 -49 -15 -27 -11 17 -13 34 -8 70 5 37 9 43 15 27 4 -11 8 -42 8 -70z
m1137 -27 c-16 -22 -16 -22 -16 22 0 25 3 56 7 70 6 22 8 19 16 -22 7 -37 6
-52 -7 -70z m-1109 -150 c36 -38 11 -37 -49 1 -61 39 -67 51 -18 37 22 -5 52
-23 67 -38z m1152 26 c-42 -31 -84 -54 -100 -54 -22 0 41 57 74 68 54 17 62
13 26 -14z m-1008 -41 c22 -53 21 -69 -3 -51 -17 13 -37 98 -24 98 4 0 16 -21
27 -47z m804 0 c-3 -22 -14 -44 -26 -51 -25 -16 -24 -3 3 53 25 52 33 52 23
-2z m-166 -155 c5 -13 11 -33 15 -45 l7 -23 -270 0 c-149 0 -271 2 -271 5 0 2
7 23 16 45 l16 40 239 0 c239 0 240 0 248 -22z"/>
<path d="M4210 3021 c-108 -33 -166 -108 -195 -253 -5 -27 -8 -28 -61 -28 -62
0 -60 3 -68 -97 l-5 -73 61 0 60 0 -6 -57 c-3 -32 -10 -121 -16 -198 -6 -77
-13 -157 -15 -177 l-5 -38 114 0 114 0 5 53 c4 28 11 120 17 202 6 83 13 165
16 183 l5 32 124 0 125 0 0 -27 c0 -16 -7 -104 -15 -198 -8 -93 -15 -187 -15
-207 l0 -38 110 0 109 0 5 33 c3 17 10 100 16 182 6 83 13 174 17 203 l5 52
73 0 c84 0 85 1 85 108 l0 62 -74 0 -75 0 10 32 c15 54 42 73 103 72 l53 0 6
80 c3 47 2 85 -4 91 -18 18 -154 18 -210 0 -95 -32 -163 -119 -176 -224 l-6
-51 -128 0 c-87 0 -129 4 -129 11 0 6 7 26 16 45 18 38 68 60 114 50 35 -6 38
1 41 99 2 66 1 70 -22 76 -33 9 -148 9 -179 0z"/>
<path d="M2400 3003 c0 -23 -57 -757 -65 -840 l-7 -63 114 0 114 0 16 195 c18
213 28 248 83 274 41 20 106 -2 119 -41 9 -26 -8 -348 -21 -405 -5 -23 -4 -23
109 -23 l115 0 6 58 c23 223 30 391 18 438 -26 101 -96 153 -208 154 -51 0
-73 -6 -128 -35 l-67 -34 6 37 c3 20 8 78 11 127 3 50 8 109 12 133 l5 42
-116 0 c-104 0 -116 -2 -116 -17z"/>
<path d="M3180 2995 c0 -32 -58 -773 -65 -842 l-6 -53 115 0 116 0 0 36 0 35
34 -26 c154 -117 379 -34 442 164 22 67 24 188 6 251 -32 109 -115 179 -225
187 -76 6 -127 -8 -180 -49 l-38 -30 5 34 c3 18 8 74 11 123 3 50 8 114 12
143 l5 52 -116 0 -116 0 0 -25z m371 -431 c75 -38 81 -215 11 -278 -29 -26
-101 -32 -139 -12 -84 43 -81 244 5 290 36 20 86 20 123 0z"/>
</g>
</svg>
